{"title":"Smashing Pumpkins - Siamese Dream - Custom Remaster by MC Lurken","uid":7713286,"size":1362081971,"categoryP":"audio","categoryS":"flac","magnet":"?xt=urn:btih:f546f18e1f27227f6f64b8ecbf26de03517270d7&amp;dn=Smashing+Pumpkins+-+Siamese+Dream+-+Custom+Remaster+by+MC+Lurken&amp;tr=udp%3A%2F%2Ftracker.openbittorrent.com%3A80&amp;tr=udp%3A%2F%2Fopen.demonii.com%3A1337&amp;tr=udp%3A%2F%2Ftracker.coppersurfer.tk%3A6969&amp;tr=udp%3A%2F%2Fexodus.desync.com%3A6969","seeders":0,"leechers":1,"uploader":"beavis39","files":-1,"time":1349864298,"description":"Smashing Pumpkins - Siamese Dream - Custom Remaster by MC Lurken (a.k.a. Beavis39)\n\n\n\n1 - Cherub Rock\n2 - Quiet\n3 - Today\n4 - Hummer\n5 - Rocket\n6 - Disarm\n7 - Soma\n8 - Geek U.S.A.\n9 - Mayonaise\n10 - Spaceboy\n11 - Silverfuck\n12 - Sweet Sweet\n13 - Luna\n\n\n\nSetup:\n-HP G72-250US\n-Intel Core i3 M350 2.27GHz\n-8Gb PC3-10700 RAM\n-Win7 64-bit SP1\n-SB X-Fi Surround 5.1\n\n\nProcess:\n-Original 16-bit/44.1kHz files joined in Wavelab 6\n-Remove DC offset and save as 64-bit float/44.1kHz\n-Resample to 384kHz in Wavelab w/crystal resampler ultra(slow) relax background priority\n-Create new 64-bit/384kHz master recording in Wavelab\n\n\nAs reported in Wavelab:\n-Original 16-bit/44.1kHz: Apparent Bit Resolution = 16, Peak = -0.2db\n-With DC Offset Removed: Apparent Bit Resolution = 20, Peak = -0.198db\n-64-bit/384kHz Recording: Apparent Bit Resolution = 42, Peak = 0.482db\n\n\n-Resample new 64-bit/384kHz master recording to 64-bit/96kHz in Wavelab w/crystal resampler ultra(slow) relax background priority\n-Apply MBIT+ 24-bit Dither in Wavelab w/Izotope Ozone 5 VST Plugin\n-Flac encode level 0 with Trader's Little Helper\n-Tag and pic with xrecode II\n\n\nfoobar2000 1.1.14a / Dynamic Range Meter 1.1.1\nlog date: 2012-10-10 02:43:13\n\n--------------------------------------------------------------------------------\nAnalyzed: ? / ?\n--------------------------------------------------------------------------------\n\nDR         Peak         RMS     Duration Track\n--------------------------------------------------------------------------------\nDR10      -0.06 dB   -11.41 dB      4:58 ?-01 - Cherub Rock\nDR11       0.00 dB   -11.93 dB      3:42 ?-02 - Quiet\nDR11       0.00 dB   -12.70 dB      3:20 ?-03 - Today\nDR11       0.00 dB   -13.99 dB      6:57 ?-04 - Hummer\nDR10      -0.25 dB   -11.74 dB      4:07 ?-05 - Rocket\nDR10       0.00 dB   -13.37 dB      3:17 ?-06 - Disarm\nDR10      -0.09 dB   -14.18 dB      6:40 ?-07 - Soma\nDR10       0.00 dB   -12.04 dB      5:14 ?-08 - Geek U.S.A.\nDR11       0.00 dB   -12.86 dB      5:49 ?-09 - Mayonaise\nDR12       0.00 dB   -14.47 dB      4:29 ?-10 - Spaceboy\nDR11      -0.04 dB   -13.57 dB      8:43 ?-11 - Silverfuck\nDR10      -4.66 dB   -16.41 dB      1:39 ?-12 - Sweet Sweet\nDR10      -0.29 dB   -13.13 dB      3:20 ?-13 - Luna\n--------------------------------------------------------------------------------\n\nNumber of tracks:  13\nOfficial DR value: DR11 (Increased from DR10)\n\nSamplerate:        96000 Hz\nChannels:          2\nBits per sample:   24\nBitrate:           4608 kbps\nCodec:             PCM\n\n\n\nenjoy :)","torrent":{"xt":"urn:btih:f546f18e1f27227f6f64b8ecbf26de03517270d7","amp;dn":"Smashing+Pumpkins+-+Siamese+Dream+-+Custom+Remaster+by+MC+Lurken","amp;tr":["udp%3A%2F%2Ftracker.openbittorrent.com%3A80","udp%3A%2F%2Fopen.demonii.com%3A1337","udp%3A%2F%2Ftracker.coppersurfer.tk%3A6969","udp%3A%2F%2Fexodus.desync.com%3A6969"],"infoHash":"f546f18e1f27227f6f64b8ecbf26de03517270d7","infoHashBuffer":{"type":"Buffer","data":[245,70,241,142,31,39,34,127,111,100,184,236,191,38,222,3,81,114,112,215]},"announce":[],"urlList":[]}}